<?xml version="1.0" encoding="UTF-8" standalone="no"?>
<svg width="113px" height="122px" viewBox="0 0 113 122" version="1.1" xmlns="http://www.w3.org/2000/svg" xmlns:xlink="http://www.w3.org/1999/xlink">
    <!-- Generator: Sketch 3.7.1 (28215) - http://www.bohemiancoding.com/sketch -->
    <title>icon--artist-hover</title>
    <desc>Created with Sketch.</desc>
    <defs></defs>
    <g id="Page-1" stroke="none" stroke-width="1" fill="none" fill-rule="evenodd">
        <g id="Artboard-1" transform="translate(-597.000000, -8521.000000)">
            <g id="icon" transform="translate(518.000000, 7834.000000)">
                <g id="Group-7" transform="translate(0.000000, 236.000000)">
                    <g id="icon-hover" transform="translate(80.000000, 444.000000)">
                        <g id="icon--artist-hover" transform="translate(0.000000, 7.000000)">
                            <path d="M1.08303302,109.256303 C1.08303302,109.256303 56.3483515,80.1091249 110.500002,110" id="Path-12" stroke="#6D7075" stroke-width="3" stroke-linecap="round" stroke-linejoin="round"></path>
                            <polygon id="Path-13" fill="#1C1D22" points="31.4079575 94.8262251 32.4909905 102.041264 74.7292782 105.133424 77.9783772 101.010544 79.0614103 96.8876648 73.6462452 93.7955053"></polygon>
                            <path d="M90.5481825,48.0598004 C93.2875888,48.6236485 94.4697855,50.5227289 94.8503748,52.8193784 C95.6394354,57.5802066 94.9423854,62.1997603 92.5668392,66.5455163 C91.6286099,68.2620649 90.2080221,69.5635413 87.9119396,69.8085839 C87.7321007,69.8273372 87.4951037,70.0611278 87.4337634,70.2361583 C86.0201461,74.2906136 84.1562345,78.1637874 81.7151656,81.8106718 C81.539509,82.0719673 81.5436913,82.4545338 81.5422972,82.7808406 C81.5297503,87.2491179 81.5367208,91.7173952 81.5241739,96.1856725 C81.5227798,96.8582895 81.441922,97.5296563 81.4056754,98.0722507 C86.4341937,99.5200026 91.4989587,100.740215 96.3532145,102.443011 C101.189347,104.139556 105.814971,106.318685 110.613462,108.320283 C110.248208,109.121673 109.90526,109.876804 109.513518,110.738204 C108.336897,110.265622 107.20907,109.825545 106.091002,109.362965 C102.046718,107.691424 98.090263,105.816098 93.9400276,104.395851 C89.9529019,103.030613 85.7664199,102.134207 81.664978,101.037767 C81.5074447,100.995259 81.3317881,101.011512 81.1993486,101.00151 C80.7825127,102.89559 80.4395642,104.763415 79.9516292,106.598734 C79.2002093,109.424226 77.9789778,112.078437 76.013297,114.421345 C73.2599497,117.703166 69.523762,119.634752 65.156047,120.596169 C59.225546,121.901396 53.2169754,122.03892 47.2223459,121.047498 C38.8661111,119.666007 33.5643492,115.145221 31.1441917,107.911462 C30.4401713,105.807346 30.0665525,103.614465 29.542371,101.46159 C29.5061244,101.314065 29.4712719,101.166539 29.4364194,101.019013 C19.3333774,102.719309 10.1936585,106.604985 1.11527992,110.845723 C0.858765538,110.318131 0.674744351,109.946816 0.499087764,109.573001 C0.320642977,109.190435 0.151956889,108.805368 0,108.467809 C9.25542923,104.042039 18.7436731,100.198871 28.9903074,98.4160605 C28.859262,94.4878772 28.6027476,90.7247225 28.6571175,86.9665687 C28.69197,84.5749027 28.1315419,82.5220456 26.6733134,80.47794 C24.4845765,77.4111565 23.040289,73.9943121 21.8650628,70.5037048 C21.7061354,70.0298724 21.5095673,69.8073337 20.8891929,69.7548245 C19.1800264,69.6097993 17.9783123,68.6796375 17.038689,67.4606755 C15.6613183,65.6741147 14.974027,63.6387606 14.5083976,61.5408956 C13.8378356,58.5178697 13.4697932,55.4723399 14.2365482,52.4193088 C14.7593356,50.3351963 15.8369749,48.6324 18.3993305,48.0760533 C18.5708048,48.0385467 18.7534318,47.6534798 18.7548259,47.430941 C18.7604023,46.0019424 18.6767563,44.5729439 18.6948796,43.1439453 C18.7492495,38.8069408 18.8468365,34.4711865 18.9081769,30.1341821 C18.937453,28.030066 18.8705362,25.9234495 18.9472117,23.8205837 C18.993217,22.580368 19.202332,21.3401522 19.3947178,20.108688 C19.7808835,17.6445093 21.1178253,15.6291587 23.0765356,13.9013582 C26.3875229,10.9795999 30.2087507,8.68920144 34.218182,6.6350941 C38.8047707,4.28593544 43.596292,2.36185072 48.6443278,0.934102347 C53.2615866,-0.37237493 57.7840467,-0.316115143 62.3497239,1.15164019 C70.3504632,3.72333757 77.5356541,7.49649396 83.9289962,12.521118 C87.274836,15.1503254 89.2126348,18.320877 89.5151545,22.356579 C89.9905426,28.6776787 90.8507022,34.9762744 90.5607294,41.3348806 C90.4631424,43.5352633 90.5481825,45.7456479 90.5481825,48.0598004 L90.5481825,48.0598004 Z M82.9099092,28.3047336 C82.5809016,28.030936 82.33554,27.5295988 82.3188108,27.1245283 C82.2072828,24.3202905 82.1389719,21.5148024 82.1222427,18.7093144 C82.1180604,18.0354471 81.8531815,17.609123 81.2927533,17.2040525 C79.1500218,15.655033 76.7479876,14.5310875 74.1967848,13.6496842 C69.2282128,11.9318854 64.0477375,11.1892562 58.7557343,10.9442135 C52.3219633,10.6466618 45.9634737,11.0542327 39.7248766,12.5607448 C35.5885822,13.5596685 31.6767379,15.0124213 28.2096115,17.3303245 C27.5529904,17.7691508 27.2421061,18.2279806 27.2574412,19.0018653 C27.310417,21.5473081 27.2379238,24.0940011 27.2658058,26.6406941 C27.2727763,27.2995588 27.0915433,27.714631 26.4377105,28.0971975 C25.5719744,28.6022854 24.7508496,29.2148919 24.0649525,29.905012 C23.5045243,30.4676099 22.8520855,31.1902356 22.7963215,31.8791054 C22.6304237,33.9332128 22.7363752,36.0048231 22.7363752,38.085185 C22.8046861,38.0764335 22.9190023,38.0651816 23.0305303,38.0464283 C25.9595342,37.5550928 29.5410747,42.7681747 32.4909901,42.4131129 C36.8517346,41.8880216 40.4818729,36.7812082 44.7645477,37.4488243 C47.1289412,37.8176385 49.4724231,38.3164753 51.8479693,38.5915231 C56.434558,39.1228656 60.9221656,38.3452303 65.3554033,37.42382 C71.7598982,36.0923384 78.1613024,39.7283554 84.4765749,41.3823931 C85.1387724,41.5536729 85.7552671,38.0689322 86.4327996,38.2002051 C87.4797686,34.1707541 86.1247035,30.973948 82.9099092,28.3047336 Z M37.874906,87.9667427 C38.2889537,86.0076519 38.5078274,83.9935515 39.1672367,82.1044729 C40.8234273,77.3573971 44.1706612,73.9955623 49.6215918,72.4915506 C51.3070586,72.0264697 52.8252334,72.113985 54.1900572,73.131662 C54.8062493,73.591742 55.2635141,73.5004762 55.8448537,73.0891546 C56.8555762,72.37278 57.9680679,71.9927139 59.3189507,72.2840145 C62.5964796,72.9916376 65.4097732,74.379379 67.6333625,76.6735281 C70.0395789,79.1577103 71.3040275,82.1094738 71.9704073,85.2962782 C72.1516403,86.1651793 72.2798975,87.042832 72.4499776,88.014251 C73.0856872,87.4491527 73.6419331,86.996574 74.1465972,86.5014878 C80.1468032,80.621715 83.6390234,73.6067446 85.7078677,65.9454119 C87.3096885,60.0118796 87.541109,53.9745794 87.457463,47.9110246 C87.4560689,47.8260098 87.3905463,47.7422452 87.3556938,47.6584806 C87.2664714,47.6309758 87.177249,47.6034711 87.0880266,47.574716 C86.6865258,48.2685868 86.1651324,48.9287016 85.9058299,49.6625793 C85.3021846,51.3666257 84.8491021,53.1131795 84.2900681,54.8297281 C83.5972004,56.9600988 82.3243872,58.7241556 80.255543,60.0243818 C78.1643931,61.3396106 75.8278817,61.9409652 73.3366252,62.0534848 C66.5139003,62.3610383 66.2410379,58.4264812 63.89895,52.5667118 C63.3914977,51.2977411 59.0260898,50.920298 58.4837849,49.6625792 C58.0892547,48.7486702 55.310913,46.4048966 54.1900567,46.3823927 C52.2034643,46.3423857 52.777834,48.7686738 52.1198188,50.4664691 C52.0152613,50.7365161 51.899551,51.0028124 51.8200873,51.2791105 C51.187166,53.4932457 42.5061058,51.737108 41.0311481,53.5974317 C39.1421427,55.9815964 43.3525386,60.3098831 40.0722216,60.8124705 C37.4415551,61.2150406 35.7921208,62.19851 33.1809717,61.7134257 C29.4210843,61.0145541 26.7416243,59.2604989 25.6347089,55.8261515 C25.0728867,54.0845985 24.3981423,52.3730508 23.8000735,50.6402493 C23.4041491,49.4950501 22.900879,46.0868008 21.8971271,45.3516729 C21.8971271,48.0896492 21.7507466,53.1881926 21.8971271,55.9274191 C22.27214,62.9198855 23.9799124,69.6560574 27.3396931,75.9921596 C28.510737,78.2000437 30.073523,80.2403986 31.455076,82.3582671 C33.0666555,84.8336977 35.2874566,86.8265444 37.7452548,88.9006552 C37.803807,88.4693302 37.8219303,88.215536 37.874906,87.9667427 Z M31.4996872,87.1566018 C31.4996872,87.3641379 31.4913226,87.6141814 31.5010813,87.8629747 C31.6028506,90.5121855 31.6432795,93.1638968 31.8273007,95.8081068 C32.0949679,99.6475247 32.6093907,103.458188 33.8877803,107.157581 C35.8715845,112.89858 39.8364046,116.860519 46.5141431,118.239509 C52.7471638,119.527233 58.9997018,119.383458 65.1741703,117.884447 C70.5595782,116.57797 74.2860072,113.517438 76.1094899,108.796616 C76.9835905,106.531222 77.5983886,104.155809 78.0194067,101.786647 C78.9395127,96.6107465 78.8098614,91.3760858 78.7429446,86.1526772 C78.7415505,86.0639117 78.7178508,85.9763965 78.720639,85.9951498 C76.7563522,87.7392032 74.7767304,89.4770055 72.831961,91.2460632 C72.6256342,91.4335958 72.5712643,91.7949087 72.5308354,92.0849591 C72.2715329,93.9627858 72.2101925,95.8768688 71.7585041,97.7146885 C70.6014012,102.419257 67.6249979,105.798595 62.3204478,107.192587 C58.1283894,108.294029 53.8457145,108.266524 49.5783747,107.603909 C44.8217058,106.866281 41.3336679,104.595886 39.4349038,100.525177 C38.2889537,98.0685001 37.9209113,95.4767992 37.7327079,92.848842 C37.7117964,92.5637924 37.6406973,92.1974787 37.4315823,92.0224483 C35.4909952,90.3959153 33.5155557,88.8006378 31.4996872,87.1566018 L31.4996872,87.1566018 Z M54.8271608,94.2953437 C57.0089272,94.0940587 59.3872616,93.9952915 61.7140143,93.630228 C64.5119728,93.1914016 66.6323988,91.8586698 67.4883761,89.2682191 C69.5753436,82.9583715 65.1950818,77.0835995 59.2380929,75.6145939 C58.6623296,75.4720691 58.2078531,75.5045748 57.718524,75.8471344 C56.8402411,76.4634916 55.8532183,77.0210886 54.6989036,76.7897984 C53.8485027,76.6197688 53.0162251,76.2559555 52.2675934,75.8433837 C51.690436,75.5258285 51.2025011,75.4645678 50.5751561,75.6358476 C47.6670637,76.4284855 45.4629918,78.0025093 43.9378465,80.3529182 C42.7263737,82.2207431 42.0223532,84.2535968 41.7309864,86.3777163 C41.0952768,91.0060215 43.7329138,93.2589134 47.5374124,93.6989899 C49.8878649,93.9702871 52.2592288,94.090308 54.8271608,94.2953437 L54.8271608,94.2953437 Z M20.4375045,67.0593556 C20.5392738,66.9993452 20.6410431,66.9393348 20.7414183,66.8793243 C19.285978,61.594655 18.798043,56.2124687 18.8245309,50.7327654 C17.8165967,51.1315848 17.2171337,51.7541931 17.0693592,53.0119119 C16.8741852,54.679702 16.7640513,56.3774974 16.8797616,58.047788 C17.0554182,60.5694766 17.6172404,63.0474077 18.9723055,65.3040503 C19.355683,65.940411 19.9439932,66.4767543 20.4375045,67.0593556 L20.4375045,67.0593556 Z M90.3488262,50.6840069 C90.3808905,56.2337224 89.8720441,61.5608991 88.4096333,66.9843426 C89.508184,66.3154762 90.0072718,65.497834 90.3948315,64.6426852 C91.9813172,61.1383256 92.5835684,57.4939416 92.0998157,53.7332874 C91.9590116,52.6355965 91.6787975,51.5266535 90.3488262,50.6840069 L90.3488262,50.6840069 Z" id="Shape" fill="#C9AA3D"></path>
                            <path d="M44.894199,68.4179888 C44.7952179,67.5228331 44.7073897,66.728945 44.6111968,65.8637945 C47.0522657,65.7050169 49.4208414,65.7875312 51.662554,66.5601656 C54.0185829,67.3715568 56.2561132,67.3240485 58.5494075,66.3851352 C60.5806111,65.5524903 62.7275249,65.2099307 65.0905243,65.6300038 C64.9399615,66.4526469 64.793581,67.2552866 64.6276831,68.1616942 C62.2758366,67.689112 60.2516035,68.5880184 58.1757888,69.2731376 C56.1780436,69.9320022 54.1245345,70.0045148 52.1295775,69.3931585 C49.8014307,68.6805345 47.4495842,68.2692129 44.894199,68.4179888 L44.894199,68.4179888 Z" id="Shape" fill="#6D7075"></path>
                            <path d="M62.3803941,84.2035672 C62.2172844,85.9601227 58.3960566,88.4980643 55.8002425,88.7968662 C52.6453945,89.1606795 48.507706,87.0878189 47.3993966,84.4061024 C52.4683438,85.8326006 57.4285512,86.0438873 62.3803941,84.2035672 L62.3803941,84.2035672 Z" id="Shape" fill="#6D7075"></path>
                            <path d="M54.4561989,40.80583 C52.7743734,40.7600719 51.1804618,40.3975246 49.674464,40.0736962 C39.5108867,37.8948947 32.6332576,39.9469807 20.5776273,40.0736962 L20.5776273,44.3209529 C21.2809362,44.3350324 21.603268,44.7586491 21.6606032,46.0011645 C22.0887043,56.0011281 25.7122727,60.5382459 35.2069429,60.5452852 C45.9515135,60.555845 51.2899202,54.0744245 51.9855848,50.5052724 C52.3601727,48.5869403 58.1168392,49.6429026 58.4837829,50.5052724 C62.848884,60.6636292 64.3025226,59.8589104 73.4646498,60.5910442 C87.3817553,61.7103638 85.7801985,52.2031835 87.6646073,46.6805009 C88.0239068,45.6245378 87.5511609,45.3763124 88.8087074,45.351673 L88.8087074,41.2287934 C78.6489531,41.1583959 73.9653744,38.0075306 63.1176006,39.6125933 C60.3540553,40.0244184 57.257968,40.8832677 54.4561989,40.80583 Z" id="Shape" stroke="#C9AA3D" stroke-width="5" fill="#1C1D22"></path>
                        </g>
                    </g>
                </g>
            </g>
        </g>
    </g>
</svg>